<svg xmlns="http://www.w3.org/2000/svg" viewBox="0 0 567.214 100.000" role="img" aria-label="Haven">
  <title>Haven</title>
  <!-- Mark: hollow burnt-orange ring (transparent centre, works on any background) -->
  <circle cx="50.000" cy="50.000" r="39.286" fill="none" stroke="#c14a1f" stroke-width="21.429"/>
  <!-- Wordmark: Fraunces 500 'Haven' converted to outlines.
       fill=currentColor — inherits color from the surrounding context.
         · Used as <img src="logo.svg">         → UA default text colour (black)
         · Used inline, parent has color:X      → X (e.g. cream on dark bgs)
         · Direct override                      → <svg fill="#f4efe6"> or attr-edit -->
  <g fill="currentColor">
    <path d="M373 710H1243V616H373ZM530 154Q530 133 543.0 119.0Q556 105 580 99L641 87Q681 75 681 41Q681 22 668.0 11.0Q655 0 627 0H162Q134 0 121.0 11.0Q108 22 108 41Q108 75 147 87L209 99Q233 105 246.0 119.0Q259 133 259 154V1246Q259 1267 246.0 1281.0Q233 1295 209 1301L147 1313Q108 1325 108 1359Q108 1378 121.0 1389.0Q134 1400 162 1400H627Q655 1400 668.0 1389.0Q681 1378 681 1359Q681 1325 641 1313L580 1301Q556 1295 543.0 1281.0Q530 1267 530 1246ZM1421 154Q1421 133 1434.0 119.0Q1447 105 1471 99L1532 87Q1572 75 1572 41Q1572 22 1559.0 11.0Q1546 0 1518 0H1053Q1025 0 1012.0 11.0Q999 22 999 41Q999 75 1038 87L1100 99Q1124 105 1137.0 119.0Q1150 133 1150 154V1246Q1150 1267 1137.0 1281.0Q1124 1295 1100 1301L1038 1313Q999 1325 999 1359Q999 1378 1012.0 1389.0Q1025 1400 1053 1400H1518Q1546 1400 1559.0 1389.0Q1572 1378 1572 1359Q1572 1325 1532 1313L1471 1301Q1447 1295 1434.0 1281.0Q1421 1267 1421 1246Z" transform="translate(135.714 100.000) scale(0.071429 -0.071429)"/>
    <path d="M691 125V145L675 150V734Q675 813 635.5 855.5Q596 898 524 898Q456 898 421.0 869.5Q386 841 386 801V717Q386 663 350.5 634.0Q315 605 251 605Q195 605 166.0 632.0Q137 659 137 706Q137 769 187.0 828.0Q237 887 333.5 925.5Q430 964 569 964Q746 964 832.5 890.0Q919 816 919 692V161Q919 131 931.0 116.5Q943 102 964 102Q988 102 998.5 113.0Q1009 124 1017 135Q1023 141 1028.5 145.5Q1034 150 1042 150Q1053 150 1058.5 142.0Q1064 134 1064 120Q1064 89 1042.5 55.5Q1021 22 978.5 -1.0Q936 -24 873 -24Q789 -24 740.0 15.0Q691 54 691 125ZM94 209Q94 330 202.5 406.5Q311 483 505 483Q572 483 626.5 471.0Q681 459 722 440L703 381Q665 397 625.5 407.5Q586 418 539 418Q449 418 397.5 373.0Q346 328 346 249Q346 172 389.0 130.5Q432 89 499 89Q559 89 614.5 116.5Q670 144 709 194L731 142Q673 63 580.5 19.5Q488 -24 384 -24Q255 -24 174.5 39.5Q94 103 94 209Z" transform="translate(252.857 100.000) scale(0.071429 -0.071429)"/>
    <path d="M597 -10H510Q482 -10 462.0 4.5Q442 19 430 49L132 790Q116 829 105.0 842.0Q94 855 79 859L44 867Q25 873 17.0 882.0Q9 891 9 905Q9 923 22.0 933.0Q35 943 58 943H483Q532 943 532 906Q532 891 523.0 882.0Q514 873 492 868L453 861Q406 851 397.0 828.0Q388 805 410 746L654 117L600 88L852 746Q874 805 865.0 828.5Q856 852 809 861L769 868Q748 873 739.0 882.0Q730 891 730 906Q730 924 743.0 933.5Q756 943 779 943H1054Q1076 943 1089.0 933.0Q1102 923 1102 905Q1102 892 1094.5 882.5Q1087 873 1065 868L1031 861Q1012 857 997.0 834.5Q982 812 960 757L675 44Q663 12 642.5 1.0Q622 -10 597 -10Z" transform="translate(328.714 100.000) scale(0.071429 -0.071429)"/>
    <path d="M979 588Q979 538 950.0 511.5Q921 485 867 485H235V556H680Q730 556 730 600Q730 733 677.0 805.0Q624 877 535 877Q466 877 413.0 836.5Q360 796 330.5 720.5Q301 645 301 542Q301 345 394.0 245.5Q487 146 639 146Q733 146 802.5 186.0Q872 226 906 295Q921 313 930.5 319.5Q940 326 951 326Q965 326 972.0 313.0Q979 300 978 282Q973 199 918.5 129.0Q864 59 771.5 17.5Q679 -24 561 -24Q418 -24 308.5 35.0Q199 94 137.5 201.0Q76 308 76 452Q76 601 135.5 716.5Q195 832 305.0 898.5Q415 965 568 965Q696 965 788.0 917.0Q880 869 929.5 784.0Q979 699 979 588Z" transform="translate(405.143 100.000) scale(0.071429 -0.071429)"/>
    <path d="M447 901V149Q447 120 456.0 106.0Q465 92 484 86L525 76Q556 64 556 39Q556 0 505 0H134Q108 0 96.0 10.0Q84 20 84 37Q84 51 92.5 60.5Q101 70 119 76L163 86Q182 92 191.5 105.5Q201 119 201 148V746Q201 770 193.0 780.5Q185 791 168 794L108 797Q90 800 82.5 808.5Q75 817 75 829Q75 844 84.0 853.5Q93 863 118 871L294 935Q328 947 349.5 953.0Q371 959 389 959Q418 959 432.5 943.0Q447 927 447 901ZM417 684 375 727 416 763Q538 872 625.5 918.5Q713 965 793 965Q915 965 982.0 884.0Q1049 803 1064 667L1122 152Q1126 121 1134.5 106.5Q1143 92 1163 86L1202 76Q1220 70 1228.5 60.5Q1237 51 1237 37Q1237 20 1225.5 10.0Q1214 0 1188 0H813Q762 0 762 39Q762 64 793 76L835 86Q856 92 866.5 107.0Q877 122 874 152L819 630Q808 723 770.5 770.0Q733 817 662 817Q617 817 566.5 792.5Q516 768 459 719Z" transform="translate(477.571 100.000) scale(0.071429 -0.071429)"/>
  </g>
</svg>
